<?xml version="1.0" encoding="UTF-8" standalone="no"?>
<svg width="32px" height="32px" viewBox="0 0 32 32" version="1.1" xmlns="http://www.w3.org/2000/svg" xmlns:xlink="http://www.w3.org/1999/xlink">
    <!-- Generator: Sketch 40.3 (33839) - http://www.bohemiancoding.com/sketch -->
    <title>Logo</title>
    <desc>Created with Sketch.</desc>
    <defs></defs>
    <g id="Main" stroke="none" stroke-width="1" fill="none" fill-rule="evenodd">
        <g id="Tickets-List" transform="translate(-20.000000, -15.000000)">
            <g id="Logo" transform="translate(20.000000, 15.000000)">
                <g>
                    <circle id="Oval-9" fill="#4089B2" cx="16" cy="16" r="16"></circle>
                    <path d="M25,14.1071429 L25,12.2523787 C25,11.1464955 24.1073772,10.25 23.0049107,10.25 L8.99508929,10.25 C7.8932319,10.25 7,11.1387768 7,12.2523787 L7,14.1071429 C8.06512059,14.1071429 8.92857143,14.9705937 8.92857143,16.0357143 C8.92857143,17.1008349 8.06512059,17.9642857 7,17.9642857 L7,19.8190499 C7,20.9249331 7.89434485,21.8214286 9.00449979,21.8214286 L17.9287423,21.8214286 L20.9488088,23.8348954 C21.4110189,24.1430492 21.7857143,23.9449485 21.7857143,23.3913126 L21.7857143,21.8214286 L23.0008979,21.8214286 C24.1049715,21.8214286 25,20.9326518 25,19.8190499 L25,17.9642857 C23.9348794,17.9642857 23.0714286,17.1008349 23.0714286,16.0357143 C23.0714286,14.9705937 23.9348794,14.1071429 25,14.1071429 Z M12.1428571,17.3214286 C12.8529375,17.3214286 13.4285714,16.7457947 13.4285714,16.0357143 C13.4285714,15.3256339 12.8529375,14.75 12.1428571,14.75 C11.4327768,14.75 10.8571429,15.3256339 10.8571429,16.0357143 C10.8571429,16.7457947 11.4327768,17.3214286 12.1428571,17.3214286 Z M16,17.3214286 C16.7100804,17.3214286 17.2857143,16.7457947 17.2857143,16.0357143 C17.2857143,15.3256339 16.7100804,14.75 16,14.75 C15.2899196,14.75 14.7142857,15.3256339 14.7142857,16.0357143 C14.7142857,16.7457947 15.2899196,17.3214286 16,17.3214286 Z M19.8571429,17.3214286 C20.5672232,17.3214286 21.1428571,16.7457947 21.1428571,16.0357143 C21.1428571,15.3256339 20.5672232,14.75 19.8571429,14.75 C19.1470625,14.75 18.5714286,15.3256339 18.5714286,16.0357143 C18.5714286,16.7457947 19.1470625,17.3214286 19.8571429,17.3214286 Z" id="Icon" fill="#FFFFFF"></path>
                </g>
            </g>
        </g>
    </g>
</svg>