<?xml version="1.0" encoding="UTF-8" standalone="no"?>
<svg width="32px" height="27px" viewBox="0 0 32 32" version="1.1" xmlns="http://www.w3.org/2000/svg" xmlns:xlink="http://www.w3.org/1999/xlink">
    <!-- Generator: Sketch 40.3 (33839) - http://www.bohemiancoding.com/sketch -->
    <title>Icon</title>
    <desc>Created with Sketch.</desc>
    <defs>
        <path d="M15.0112029,1.73039492 C15.5573005,0.774724196 16.4446309,0.778104007 16.9887971,1.73039492 L31.0112029,26.2696051 C31.5573005,27.2252758 31.1107383,28 29.9982567,28 L2.00174332,28 C0.89621101,28 0.444630861,27.221896 0.988797098,26.2696051 L15.0112029,1.73039492 Z" id="path-1"></path>
        <mask id="mask-2" maskContentUnits="userSpaceOnUse" maskUnits="objectBoundingBox" x="0" y="0" width="32" height="28" fill="white">
            <use xlink:href="#path-1"></use>
        </mask>
    </defs>
    <g id="Welcome" stroke="none" stroke-width="1" fill="none" fill-rule="evenodd">
        <g id="Desktop-HD" transform="translate(-20.000000, -212.000000)">
            <g id="Needs-attention" transform="translate(20.000000, 209.000000)">
                <g id="Icon" transform="translate(0.000000, 5.000000)">
                    <use id="Triangle" stroke="#000000" mask="url(#mask-2)" stroke-width="4" xlink:href="#path-1"></use>
                    <circle id="Oval-5" fill="#000000" cx="16" cy="23" r="1"></circle>
                    <path d="M14.6497684,11.9953976 C14.6222812,11.4456547 15.0498674,11 15.5950587,11 L16.4049413,11 C16.9544979,11 17.3772183,11.4556644 17.3502316,11.9953976 L16.945255,20.0949295 C16.9202622,20.5947862 16.5005225,21 16,21 L16,21 C15.5029429,21 15.0797786,20.5956028 15.054745,20.0949295 L14.6497684,11.9953976 Z" id="Rectangle-6" fill="#000000"></path>
                </g>
            </g>
        </g>
    </g>
</svg>