<?xml version="1.0" encoding="UTF-8" standalone="no"?>
<svg width="24px" height="32px" viewBox="0 0 32 32" version="1.1" xmlns="http://www.w3.org/2000/svg" xmlns:xlink="http://www.w3.org/1999/xlink">
    <!-- Generator: Sketch 40.3 (33839) - http://www.bohemiancoding.com/sketch -->
    <title>Icon</title>
    <desc>Created with Sketch.</desc>
    <defs></defs>
    <g id="Welcome" stroke="none" stroke-width="1" fill="none" fill-rule="evenodd">
        <g id="Desktop-HD" transform="translate(-24.000000, -271.000000)">
            <g id="Ongoing" transform="translate(24.000000, 271.000000)">
                <g id="Icon" transform="translate(4.000000, 0.000000)">
                    <g id="Arrow" transform="translate(2.000000, 0.000000)">
                        <path d="M20.9576607,16 C21.5099454,16 21.9576607,15.5522847 21.9576607,15 C19.4363289,15.0079346 22.5911446,15.0147095 19.9500008,15 C19.9500008,15.5522847 20.4053759,16 20.9576607,16 Z" id="Oval-7" fill="#000000"></path>
                        <path d="M2.20177136,1.23849733 C2.75214012,1.23849733 3.19945519,1.6772559 3.20094309,2.24343586 L3.21673476,8.25252061 L9.19859796,8.25252061 C9.75109594,8.25252061 10.198984,8.6953108 10.198984,9.25009952 L10.198984,9.25009952 C10.198984,9.80104714 9.75298291,10.2476784 9.20213286,10.2476784 L2.20209176,10.2476784 C1.65154606,10.2476784 1.20524058,9.80091175 1.20524058,9.24911617 L1.20524058,2.2370596 C1.20524058,1.68556889 1.64756554,1.23849733 2.20177136,1.23849733 L2.20177136,1.23849733 Z" id="Path-5" fill="#000000" transform="translate(5.702112, 5.743088) rotate(7.000000) translate(-5.702112, -5.743088) "></path>
                        <path d="M20.9631401,15.0929734 C20.501927,9.44214827 15.7697232,5 10,5 C6.80079489,5 3.92057489,6.36573761 1.91056684,8.545986" id="Oval-8" stroke="#000000" stroke-width="2"></path>
                    </g>
                    <g id="Arrow-Copy-2" transform="translate(11.000000, 24.000000) rotate(-180.000000) translate(-11.000000, -24.000000) translate(0.000000, 16.000000)">
                        <path d="M20.9576607,16 C21.5099454,16 21.9576607,15.5522847 21.9576607,15 C19.4363289,15.0079346 22.5911446,15.0147095 19.9500008,15 C19.9500008,15.5522847 20.4053759,16 20.9576607,16 Z" id="Oval-7" fill="#000000"></path>
                        <path d="M2.20177136,1.23849733 C2.75214012,1.23849733 3.19945519,1.6772559 3.20094309,2.24343586 L3.21673476,8.25252061 L9.19859796,8.25252061 C9.75109594,8.25252061 10.198984,8.6953108 10.198984,9.25009952 L10.198984,9.25009952 C10.198984,9.80104714 9.75298291,10.2476784 9.20213286,10.2476784 L2.20209176,10.2476784 C1.65154606,10.2476784 1.20524058,9.80091175 1.20524058,9.24911617 L1.20524058,2.2370596 C1.20524058,1.68556889 1.64756554,1.23849733 2.20177136,1.23849733 L2.20177136,1.23849733 Z" id="Path-5" fill="#000000" transform="translate(5.702112, 5.743088) rotate(7.000000) translate(-5.702112, -5.743088) "></path>
                        <path d="M20.9631401,15.0929734 C20.501927,9.44214827 15.7697232,5 10,5 C6.80079489,5 3.92057489,6.36573761 1.91056684,8.545986" id="Oval-8" stroke="#000000" stroke-width="2"></path>
                    </g>
                </g>
            </g>
        </g>
    </g>
</svg>